<?xml version="1.0" standalone="no"?>
<!DOCTYPE svg PUBLIC "-//W3C//DTD SVG 20010904//EN"
 "http://www.w3.org/TR/2001/REC-SVG-20010904/DTD/svg10.dtd">
<svg version="1.0" xmlns="http://www.w3.org/2000/svg"
 width="307.000000pt" height="207.000000pt" viewBox="0 0 307.000000 207.000000"
 preserveAspectRatio="xMidYMid meet">
<metadata>
Created by potrace 1.16, written by Peter Selinger 2001-2019
</metadata>
<g transform="translate(0.000000,207.000000) scale(0.100000,-0.100000)"
fill="#000000" stroke="none">
<path d="M1207 1923 c-63 -82 -271 -344 -461 -583 l-345 -435 394 -3 c217 -1
395 -5 395 -7 0 -6 -110 -147 -397 -508 -117 -147 -213 -269 -213 -272 0 -3
312 -5 693 -5 740 0 761 2 860 51 100 51 138 92 535 594 217 275 397 508 400
517 4 17 -21 18 -385 20 l-390 3 294 370 c162 204 298 378 304 388 9 16 -31
17 -779 17 l-789 0 -116 -147z"/>
</g>
</svg>
